<mxfile host="65bd71144e">
    <diagram id="RFY-quH2ZzWZb_Mu-Uy1" name="第 1 页">
        <mxGraphModel dx="1133" dy="3148" grid="0" gridSize="10" guides="1" tooltips="1" connect="1" arrows="1" fold="1" page="1" pageScale="1" pageWidth="3300" pageHeight="2339" background="#BFF0CD" math="0" shadow="0">
            <root>
                <mxCell id="0"/>
                <mxCell id="1" parent="0"/>
                <mxCell id="32" value="" style="group" parent="1" vertex="1" connectable="0">
                    <mxGeometry x="100" y="-2201" width="320" height="580" as="geometry"/>
                </mxCell>
                <mxCell id="4" value="" style="group;fillColor=#60a917;strokeColor=#2D7600;fontColor=#ffffff;movable=1;resizable=1;rotatable=1;deletable=1;editable=1;connectable=1;locked=0;container=0;" parent="32" vertex="1" connectable="0">
                    <mxGeometry width="320" height="580" as="geometry"/>
                </mxCell>
                <mxCell id="31" style="edgeStyle=orthogonalEdgeStyle;html=1;strokeColor=#18141D;movable=1;resizable=1;rotatable=1;deletable=1;editable=1;connectable=1;locked=0;" parent="32" source="25" edge="1">
                    <mxGeometry relative="1" as="geometry">
                        <mxPoint x="160" y="321.1034482758621" as="targetPoint"/>
                    </mxGeometry>
                </mxCell>
                <mxCell id="5" value="" style="rounded=0;whiteSpace=wrap;html=1;fillColor=#1ba1e2;fontColor=#ffffff;strokeColor=#006EAF;movable=1;resizable=1;rotatable=1;deletable=1;editable=1;connectable=1;locked=0;container=0;" parent="32" vertex="1">
                    <mxGeometry width="320" height="580" as="geometry"/>
                </mxCell>
                <mxCell id="6" style="edgeStyle=none;html=1;movable=1;resizable=1;rotatable=1;deletable=1;editable=1;connectable=1;locked=0;" parent="32" source="10" target="5" edge="1">
                    <mxGeometry relative="1" as="geometry"/>
                </mxCell>
                <mxCell id="7" style="edgeStyle=none;html=1;movable=1;resizable=1;rotatable=1;deletable=1;editable=1;connectable=1;locked=0;" parent="32" source="10" target="5" edge="1">
                    <mxGeometry relative="1" as="geometry"/>
                </mxCell>
                <mxCell id="8" style="edgeStyle=none;html=1;movable=1;resizable=1;rotatable=1;deletable=1;editable=1;connectable=1;locked=0;" parent="32" source="10" target="5" edge="1">
                    <mxGeometry relative="1" as="geometry"/>
                </mxCell>
                <mxCell id="9" style="edgeStyle=none;html=1;movable=1;resizable=1;rotatable=1;deletable=1;editable=1;connectable=1;locked=0;" parent="32" source="10" target="5" edge="1">
                    <mxGeometry relative="1" as="geometry"/>
                </mxCell>
                <mxCell id="10" value="pod" style="rounded=0;whiteSpace=wrap;html=1;fillColor=#fa6800;fontColor=#000000;strokeColor=#C73500;dashed=1;movable=1;resizable=1;rotatable=1;deletable=1;editable=1;connectable=1;locked=0;container=0;" parent="32" vertex="1">
                    <mxGeometry width="110" height="193.33333333333331" as="geometry"/>
                </mxCell>
                <mxCell id="11" value="路由表" style="rounded=0;whiteSpace=wrap;html=1;fillColor=#e3c800;fontColor=#000000;strokeColor=#B09500;movable=1;resizable=1;rotatable=1;deletable=1;editable=1;connectable=1;locked=0;container=0;" parent="32" vertex="1">
                    <mxGeometry x="100" y="320" width="120" height="60.416666666666664" as="geometry"/>
                </mxCell>
                <mxCell id="12" value="flannel.1 vxlan网卡" style="rounded=0;whiteSpace=wrap;html=1;fillColor=#e3c800;fontColor=#000000;strokeColor=#B09500;movable=1;resizable=1;rotatable=1;deletable=1;editable=1;connectable=1;locked=0;container=0;" parent="32" vertex="1">
                    <mxGeometry x="100" y="429.99666666666667" width="120" height="60.416666666666664" as="geometry"/>
                </mxCell>
                <mxCell id="13" style="edgeStyle=orthogonalEdgeStyle;html=1;movable=1;resizable=1;rotatable=1;deletable=1;editable=1;connectable=1;locked=0;" parent="32" source="11" target="12" edge="1">
                    <mxGeometry relative="1" as="geometry"/>
                </mxCell>
                <mxCell id="14" value="eth0物理网卡" style="rounded=0;whiteSpace=wrap;html=1;fillColor=#e3c800;fontColor=#000000;strokeColor=#B09500;movable=1;resizable=1;rotatable=1;deletable=1;editable=1;connectable=1;locked=0;container=0;" parent="32" vertex="1">
                    <mxGeometry x="100" y="519.5833333333333" width="120" height="60.416666666666664" as="geometry"/>
                </mxCell>
                <mxCell id="15" style="edgeStyle=orthogonalEdgeStyle;html=1;movable=1;resizable=1;rotatable=1;deletable=1;editable=1;connectable=1;locked=0;" parent="32" source="12" target="14" edge="1">
                    <mxGeometry relative="1" as="geometry"/>
                </mxCell>
                <mxCell id="16" style="edgeStyle=orthogonalEdgeStyle;html=1;entryX=0.5;entryY=0;entryDx=0;entryDy=0;strokeColor=#18141D;movable=1;resizable=1;rotatable=1;deletable=1;editable=1;connectable=1;locked=0;" parent="32" source="17" target="11" edge="1">
                    <mxGeometry relative="1" as="geometry"/>
                </mxCell>
                <mxCell id="17" value="vethxxx" style="rounded=0;whiteSpace=wrap;html=1;dashed=1;fillColor=#008a00;fontColor=#ffffff;strokeColor=#005700;movable=1;resizable=1;rotatable=1;deletable=1;editable=1;connectable=1;locked=0;container=0;" parent="32" vertex="1">
                    <mxGeometry x="15" y="230" width="80" height="40" as="geometry"/>
                </mxCell>
                <mxCell id="18" style="edgeStyle=orthogonalEdgeStyle;html=1;entryX=0.5;entryY=0;entryDx=0;entryDy=0;strokeColor=#18141D;movable=1;resizable=1;rotatable=1;deletable=1;editable=1;connectable=1;locked=0;" parent="32" source="20" target="17" edge="1">
                    <mxGeometry relative="1" as="geometry"/>
                </mxCell>
                <mxCell id="19" value="veth" style="edgeLabel;html=1;align=center;verticalAlign=middle;resizable=1;points=[];movable=1;rotatable=1;deletable=1;editable=1;connectable=1;locked=0;container=0;" parent="18" vertex="1" connectable="0">
                    <mxGeometry x="-0.0932" y="2" relative="1" as="geometry">
                        <mxPoint as="offset"/>
                    </mxGeometry>
                </mxCell>
                <mxCell id="20" value="eth0" style="rounded=0;whiteSpace=wrap;html=1;dashed=1;fillColor=#008a00;strokeColor=#005700;fontColor=#ffffff;movable=1;resizable=1;rotatable=1;deletable=1;editable=1;connectable=1;locked=0;container=0;" parent="32" vertex="1">
                    <mxGeometry x="15" y="156.66000000000008" width="80" height="36.67" as="geometry"/>
                </mxCell>
                <mxCell id="21" value="pod" style="rounded=0;whiteSpace=wrap;html=1;fillColor=#fa6800;fontColor=#000000;strokeColor=#C73500;dashed=1;movable=1;resizable=1;rotatable=1;deletable=1;editable=1;connectable=1;locked=0;container=0;" parent="32" vertex="1">
                    <mxGeometry x="210" width="110" height="193.33333333333331" as="geometry"/>
                </mxCell>
                <mxCell id="22" style="edgeStyle=orthogonalEdgeStyle;html=1;entryX=0.5;entryY=0;entryDx=0;entryDy=0;strokeColor=#18141D;movable=1;resizable=1;rotatable=1;deletable=1;editable=1;connectable=1;locked=0;" parent="32" source="24" target="25" edge="1">
                    <mxGeometry relative="1" as="geometry"/>
                </mxCell>
                <mxCell id="23" value="veth" style="edgeLabel;html=1;align=center;verticalAlign=middle;resizable=1;points=[];movable=1;rotatable=1;deletable=1;editable=1;connectable=1;locked=0;container=0;" parent="22" vertex="1" connectable="0">
                    <mxGeometry x="-0.1553" y="-1" relative="1" as="geometry">
                        <mxPoint as="offset"/>
                    </mxGeometry>
                </mxCell>
                <mxCell id="24" value="eth0" style="rounded=0;whiteSpace=wrap;html=1;dashed=1;fillColor=#008a00;strokeColor=#005700;fontColor=#ffffff;movable=1;resizable=1;rotatable=1;deletable=1;editable=1;connectable=1;locked=0;container=0;" parent="32" vertex="1">
                    <mxGeometry x="225" y="156.66000000000008" width="80" height="36.67" as="geometry"/>
                </mxCell>
                <mxCell id="25" value="&lt;span style=&quot;color: rgb(255, 255, 255);&quot;&gt;vethxxx&lt;/span&gt;" style="rounded=0;whiteSpace=wrap;html=1;dashed=1;fillColor=#008a00;fontColor=#ffffff;strokeColor=#005700;movable=1;resizable=1;rotatable=1;deletable=1;editable=1;connectable=1;locked=0;container=0;" parent="32" vertex="1">
                    <mxGeometry x="225" y="230" width="80" height="40" as="geometry"/>
                </mxCell>
                <mxCell id="26" value="所有pod内路由" style="swimlane;fontStyle=0;childLayout=stackLayout;horizontal=1;startSize=30;horizontalStack=0;resizeParent=1;resizeParentMax=0;resizeLast=0;collapsible=1;marginBottom=0;whiteSpace=wrap;html=1;dashed=1;fontSize=13;fillColor=#f0a30a;fontColor=#000000;strokeColor=#BD7000;container=0;movable=1;resizable=1;rotatable=1;deletable=1;editable=1;locked=0;connectable=1;" parent="32" vertex="1">
                    <mxGeometry x="15" width="290" height="90" as="geometry"/>
                </mxCell>
                <mxCell id="27" value="" style="endArrow=classic;html=1;edgeStyle=orthogonalEdgeStyle;strokeColor=#CCCC00;strokeWidth=4;fillColor=#e3c800;movable=1;resizable=1;rotatable=1;deletable=1;editable=1;locked=0;connectable=1;" parent="32" edge="1">
                    <mxGeometry width="50" height="50" relative="1" as="geometry">
                        <mxPoint x="102.5" y="108" as="sourcePoint"/>
                        <mxPoint x="217.5" y="108" as="targetPoint"/>
                        <Array as="points">
                            <mxPoint x="103" y="312"/>
                            <mxPoint x="217" y="312"/>
                            <mxPoint x="217" y="123"/>
                        </Array>
                    </mxGeometry>
                </mxCell>
                <mxCell id="28" value="pod在同一node" style="edgeLabel;html=1;align=center;verticalAlign=middle;resizable=1;points=[];container=0;movable=1;rotatable=1;deletable=1;editable=1;locked=0;connectable=1;" parent="27" vertex="1" connectable="0">
                    <mxGeometry x="0.6457" relative="1" as="geometry">
                        <mxPoint x="-1" y="16" as="offset"/>
                    </mxGeometry>
                </mxCell>
                <mxCell id="33" value="" style="group" parent="1" vertex="1" connectable="0">
                    <mxGeometry x="600" y="-2200" width="320" height="580" as="geometry"/>
                </mxCell>
                <mxCell id="34" value="" style="group;fillColor=#60a917;strokeColor=#2D7600;fontColor=#ffffff;movable=1;resizable=1;rotatable=1;deletable=1;editable=1;connectable=1;locked=0;container=0;" parent="33" vertex="1" connectable="0">
                    <mxGeometry width="320" height="580" as="geometry"/>
                </mxCell>
                <mxCell id="35" style="edgeStyle=orthogonalEdgeStyle;html=1;strokeColor=#18141D;movable=1;resizable=1;rotatable=1;deletable=1;editable=1;connectable=1;locked=0;" parent="33" source="56" edge="1">
                    <mxGeometry relative="1" as="geometry">
                        <mxPoint x="160" y="321.1034482758621" as="targetPoint"/>
                    </mxGeometry>
                </mxCell>
                <mxCell id="36" value="" style="rounded=0;whiteSpace=wrap;html=1;fillColor=#1ba1e2;fontColor=#ffffff;strokeColor=#006EAF;movable=1;resizable=1;rotatable=1;deletable=1;editable=1;connectable=1;locked=0;container=0;" parent="33" vertex="1">
                    <mxGeometry width="320" height="580" as="geometry"/>
                </mxCell>
                <mxCell id="37" style="edgeStyle=none;html=1;movable=1;resizable=1;rotatable=1;deletable=1;editable=1;connectable=1;locked=0;" parent="33" source="41" target="36" edge="1">
                    <mxGeometry relative="1" as="geometry"/>
                </mxCell>
                <mxCell id="38" style="edgeStyle=none;html=1;movable=1;resizable=1;rotatable=1;deletable=1;editable=1;connectable=1;locked=0;" parent="33" source="41" target="36" edge="1">
                    <mxGeometry relative="1" as="geometry"/>
                </mxCell>
                <mxCell id="39" style="edgeStyle=none;html=1;movable=1;resizable=1;rotatable=1;deletable=1;editable=1;connectable=1;locked=0;" parent="33" source="41" target="36" edge="1">
                    <mxGeometry relative="1" as="geometry"/>
                </mxCell>
                <mxCell id="40" style="edgeStyle=none;html=1;movable=1;resizable=1;rotatable=1;deletable=1;editable=1;connectable=1;locked=0;" parent="33" source="41" target="36" edge="1">
                    <mxGeometry relative="1" as="geometry"/>
                </mxCell>
                <mxCell id="41" value="pod" style="rounded=0;whiteSpace=wrap;html=1;fillColor=#fa6800;fontColor=#000000;strokeColor=#C73500;dashed=1;movable=1;resizable=1;rotatable=1;deletable=1;editable=1;connectable=1;locked=0;container=0;" parent="33" vertex="1">
                    <mxGeometry width="110" height="193.33333333333331" as="geometry"/>
                </mxCell>
                <mxCell id="42" value="路由表" style="rounded=0;whiteSpace=wrap;html=1;fillColor=#e3c800;fontColor=#000000;strokeColor=#B09500;movable=1;resizable=1;rotatable=1;deletable=1;editable=1;connectable=1;locked=0;container=0;" parent="33" vertex="1">
                    <mxGeometry x="100" y="320" width="120" height="60.416666666666664" as="geometry"/>
                </mxCell>
                <mxCell id="43" value="flannel.1 vxlan网卡" style="rounded=0;whiteSpace=wrap;html=1;fillColor=#e3c800;fontColor=#000000;strokeColor=#B09500;movable=1;resizable=1;rotatable=1;deletable=1;editable=1;connectable=1;locked=0;container=0;" parent="33" vertex="1">
                    <mxGeometry x="100" y="429.99666666666667" width="120" height="60.416666666666664" as="geometry"/>
                </mxCell>
                <mxCell id="44" style="edgeStyle=orthogonalEdgeStyle;html=1;movable=1;resizable=1;rotatable=1;deletable=1;editable=1;connectable=1;locked=0;" parent="33" source="42" target="43" edge="1">
                    <mxGeometry relative="1" as="geometry"/>
                </mxCell>
                <mxCell id="45" value="eth0物理网卡" style="rounded=0;whiteSpace=wrap;html=1;fillColor=#e3c800;fontColor=#000000;strokeColor=#B09500;movable=1;resizable=1;rotatable=1;deletable=1;editable=1;connectable=1;locked=0;container=0;" parent="33" vertex="1">
                    <mxGeometry x="100" y="519.5833333333333" width="120" height="60.416666666666664" as="geometry"/>
                </mxCell>
                <mxCell id="46" style="edgeStyle=orthogonalEdgeStyle;html=1;movable=1;resizable=1;rotatable=1;deletable=1;editable=1;connectable=1;locked=0;" parent="33" source="43" target="45" edge="1">
                    <mxGeometry relative="1" as="geometry"/>
                </mxCell>
                <mxCell id="47" style="edgeStyle=orthogonalEdgeStyle;html=1;entryX=0.5;entryY=0;entryDx=0;entryDy=0;strokeColor=#18141D;movable=1;resizable=1;rotatable=1;deletable=1;editable=1;connectable=1;locked=0;" parent="33" source="48" target="42" edge="1">
                    <mxGeometry relative="1" as="geometry"/>
                </mxCell>
                <mxCell id="48" value="vethxxx" style="rounded=0;whiteSpace=wrap;html=1;dashed=1;fillColor=#008a00;fontColor=#ffffff;strokeColor=#005700;movable=1;resizable=1;rotatable=1;deletable=1;editable=1;connectable=1;locked=0;container=0;" parent="33" vertex="1">
                    <mxGeometry x="15" y="230" width="80" height="40" as="geometry"/>
                </mxCell>
                <mxCell id="49" style="edgeStyle=orthogonalEdgeStyle;html=1;entryX=0.5;entryY=0;entryDx=0;entryDy=0;strokeColor=#18141D;movable=1;resizable=1;rotatable=1;deletable=1;editable=1;connectable=1;locked=0;" parent="33" source="51" target="48" edge="1">
                    <mxGeometry relative="1" as="geometry"/>
                </mxCell>
                <mxCell id="50" value="veth" style="edgeLabel;html=1;align=center;verticalAlign=middle;resizable=1;points=[];movable=1;rotatable=1;deletable=1;editable=1;connectable=1;locked=0;container=0;" parent="49" vertex="1" connectable="0">
                    <mxGeometry x="-0.0932" y="2" relative="1" as="geometry">
                        <mxPoint as="offset"/>
                    </mxGeometry>
                </mxCell>
                <mxCell id="51" value="eth0" style="rounded=0;whiteSpace=wrap;html=1;dashed=1;fillColor=#008a00;strokeColor=#005700;fontColor=#ffffff;movable=1;resizable=1;rotatable=1;deletable=1;editable=1;connectable=1;locked=0;container=0;" parent="33" vertex="1">
                    <mxGeometry x="15" y="156.66000000000008" width="80" height="36.67" as="geometry"/>
                </mxCell>
                <mxCell id="52" value="pod" style="rounded=0;whiteSpace=wrap;html=1;fillColor=#fa6800;fontColor=#000000;strokeColor=#C73500;dashed=1;movable=1;resizable=1;rotatable=1;deletable=1;editable=1;connectable=1;locked=0;container=0;" parent="33" vertex="1">
                    <mxGeometry x="210" width="110" height="193.33333333333331" as="geometry"/>
                </mxCell>
                <mxCell id="53" style="edgeStyle=orthogonalEdgeStyle;html=1;entryX=0.5;entryY=0;entryDx=0;entryDy=0;strokeColor=#18141D;movable=1;resizable=1;rotatable=1;deletable=1;editable=1;connectable=1;locked=0;" parent="33" source="55" target="56" edge="1">
                    <mxGeometry relative="1" as="geometry"/>
                </mxCell>
                <mxCell id="54" value="veth" style="edgeLabel;html=1;align=center;verticalAlign=middle;resizable=1;points=[];movable=1;rotatable=1;deletable=1;editable=1;connectable=1;locked=0;container=0;" parent="53" vertex="1" connectable="0">
                    <mxGeometry x="-0.1553" y="-1" relative="1" as="geometry">
                        <mxPoint as="offset"/>
                    </mxGeometry>
                </mxCell>
                <mxCell id="55" value="eth0" style="rounded=0;whiteSpace=wrap;html=1;dashed=1;fillColor=#008a00;strokeColor=#005700;fontColor=#ffffff;movable=1;resizable=1;rotatable=1;deletable=1;editable=1;connectable=1;locked=0;container=0;" parent="33" vertex="1">
                    <mxGeometry x="225" y="156.66000000000008" width="80" height="36.67" as="geometry"/>
                </mxCell>
                <mxCell id="56" value="&lt;span style=&quot;color: rgb(255, 255, 255);&quot;&gt;vethxxx&lt;/span&gt;" style="rounded=0;whiteSpace=wrap;html=1;dashed=1;fillColor=#008a00;fontColor=#ffffff;strokeColor=#005700;movable=1;resizable=1;rotatable=1;deletable=1;editable=1;connectable=1;locked=0;container=0;" parent="33" vertex="1">
                    <mxGeometry x="225" y="230" width="80" height="40" as="geometry"/>
                </mxCell>
                <mxCell id="57" value="所有pod内路由" style="swimlane;fontStyle=0;childLayout=stackLayout;horizontal=1;startSize=30;horizontalStack=0;resizeParent=1;resizeParentMax=0;resizeLast=0;collapsible=1;marginBottom=0;whiteSpace=wrap;html=1;dashed=1;fontSize=13;fillColor=#f0a30a;fontColor=#000000;strokeColor=#BD7000;container=0;movable=1;resizable=1;rotatable=1;deletable=1;editable=1;locked=0;connectable=1;" parent="33" vertex="1">
                    <mxGeometry x="15" width="290" height="90" as="geometry"/>
                </mxCell>
                <mxCell id="58" value="" style="endArrow=classic;html=1;edgeStyle=orthogonalEdgeStyle;strokeColor=#CCCC00;strokeWidth=4;fillColor=#e3c800;movable=1;resizable=1;rotatable=1;deletable=1;editable=1;locked=0;connectable=1;" parent="33" edge="1">
                    <mxGeometry width="50" height="50" relative="1" as="geometry">
                        <mxPoint x="102.5" y="108" as="sourcePoint"/>
                        <mxPoint x="217.5" y="108" as="targetPoint"/>
                        <Array as="points">
                            <mxPoint x="103" y="312"/>
                            <mxPoint x="217" y="312"/>
                            <mxPoint x="217" y="123"/>
                        </Array>
                    </mxGeometry>
                </mxCell>
                <mxCell id="59" value="pod在同一node" style="edgeLabel;html=1;align=center;verticalAlign=middle;resizable=1;points=[];container=0;movable=1;rotatable=1;deletable=1;editable=1;locked=0;connectable=1;" parent="58" vertex="1" connectable="0">
                    <mxGeometry x="0.6457" relative="1" as="geometry">
                        <mxPoint x="-1" y="16" as="offset"/>
                    </mxGeometry>
                </mxCell>
                <mxCell id="69" style="edgeStyle=none;html=1;entryX=0.5;entryY=1;entryDx=0;entryDy=0;strokeWidth=3;startArrow=classic;startFill=1;" parent="1" edge="1">
                    <mxGeometry relative="1" as="geometry">
                        <mxPoint x="760" y="-1619" as="targetPoint"/>
                        <mxPoint x="263.7477384337037" y="-1620" as="sourcePoint"/>
                        <Array as="points">
                            <mxPoint x="264" y="-1489"/>
                            <mxPoint x="760" y="-1489"/>
                        </Array>
                    </mxGeometry>
                </mxCell>
                <mxCell id="70" value="vxlan" style="edgeLabel;html=1;align=center;verticalAlign=middle;resizable=0;points=[];" parent="69" vertex="1" connectable="0">
                    <mxGeometry x="-0.0611" y="-2" relative="1" as="geometry">
                        <mxPoint as="offset"/>
                    </mxGeometry>
                </mxCell>
                <mxCell id="71" value="" style="group" parent="1" vertex="1" connectable="0">
                    <mxGeometry x="1080" y="-2200" width="320" height="580" as="geometry"/>
                </mxCell>
                <mxCell id="72" value="" style="group;fillColor=#60a917;strokeColor=#2D7600;fontColor=#ffffff;movable=1;resizable=1;rotatable=1;deletable=1;editable=1;connectable=1;locked=0;container=0;" parent="71" vertex="1" connectable="0">
                    <mxGeometry width="320" height="580" as="geometry"/>
                </mxCell>
                <mxCell id="73" style="edgeStyle=orthogonalEdgeStyle;html=1;strokeColor=#18141D;movable=1;resizable=1;rotatable=1;deletable=1;editable=1;connectable=1;locked=0;" parent="71" source="94" edge="1">
                    <mxGeometry relative="1" as="geometry">
                        <mxPoint x="160" y="321.1034482758621" as="targetPoint"/>
                    </mxGeometry>
                </mxCell>
                <mxCell id="74" value="" style="rounded=0;whiteSpace=wrap;html=1;fillColor=#1ba1e2;fontColor=#ffffff;strokeColor=#006EAF;movable=1;resizable=1;rotatable=1;deletable=1;editable=1;connectable=1;locked=0;container=0;" parent="71" vertex="1">
                    <mxGeometry width="320" height="580" as="geometry"/>
                </mxCell>
                <mxCell id="75" style="edgeStyle=none;html=1;movable=1;resizable=1;rotatable=1;deletable=1;editable=1;connectable=1;locked=0;" parent="71" source="79" target="74" edge="1">
                    <mxGeometry relative="1" as="geometry"/>
                </mxCell>
                <mxCell id="76" style="edgeStyle=none;html=1;movable=1;resizable=1;rotatable=1;deletable=1;editable=1;connectable=1;locked=0;" parent="71" source="79" target="74" edge="1">
                    <mxGeometry relative="1" as="geometry"/>
                </mxCell>
                <mxCell id="77" style="edgeStyle=none;html=1;movable=1;resizable=1;rotatable=1;deletable=1;editable=1;connectable=1;locked=0;" parent="71" source="79" target="74" edge="1">
                    <mxGeometry relative="1" as="geometry"/>
                </mxCell>
                <mxCell id="78" style="edgeStyle=none;html=1;movable=1;resizable=1;rotatable=1;deletable=1;editable=1;connectable=1;locked=0;" parent="71" source="79" target="74" edge="1">
                    <mxGeometry relative="1" as="geometry"/>
                </mxCell>
                <mxCell id="79" value="pod" style="rounded=0;whiteSpace=wrap;html=1;fillColor=#fa6800;fontColor=#000000;strokeColor=#C73500;dashed=1;movable=1;resizable=1;rotatable=1;deletable=1;editable=1;connectable=1;locked=0;container=0;" parent="71" vertex="1">
                    <mxGeometry width="110" height="193.33333333333331" as="geometry"/>
                </mxCell>
                <mxCell id="80" value="路由表" style="rounded=0;whiteSpace=wrap;html=1;fillColor=#e3c800;fontColor=#000000;strokeColor=#B09500;movable=1;resizable=1;rotatable=1;deletable=1;editable=1;connectable=1;locked=0;container=0;" parent="71" vertex="1">
                    <mxGeometry x="100" y="320" width="120" height="60.416666666666664" as="geometry"/>
                </mxCell>
                <mxCell id="82" style="edgeStyle=orthogonalEdgeStyle;html=1;movable=1;resizable=1;rotatable=1;deletable=1;editable=1;connectable=1;locked=0;entryX=0.5;entryY=0;entryDx=0;entryDy=0;" parent="71" source="80" target="83" edge="1">
                    <mxGeometry relative="1" as="geometry">
                        <mxPoint x="160" y="429.99666666666667" as="targetPoint"/>
                    </mxGeometry>
                </mxCell>
                <mxCell id="83" value="eth0物理网卡" style="rounded=0;whiteSpace=wrap;html=1;fillColor=#e3c800;fontColor=#000000;strokeColor=#B09500;movable=1;resizable=1;rotatable=1;deletable=1;editable=1;connectable=1;locked=0;container=0;" parent="71" vertex="1">
                    <mxGeometry x="100" y="519.5833333333333" width="120" height="60.416666666666664" as="geometry"/>
                </mxCell>
                <mxCell id="85" style="edgeStyle=orthogonalEdgeStyle;html=1;entryX=0.5;entryY=0;entryDx=0;entryDy=0;strokeColor=#18141D;movable=1;resizable=1;rotatable=1;deletable=1;editable=1;connectable=1;locked=0;" parent="71" source="86" target="80" edge="1">
                    <mxGeometry relative="1" as="geometry"/>
                </mxCell>
                <mxCell id="86" value="vethxxx" style="rounded=0;whiteSpace=wrap;html=1;dashed=1;fillColor=#008a00;fontColor=#ffffff;strokeColor=#005700;movable=1;resizable=1;rotatable=1;deletable=1;editable=1;connectable=1;locked=0;container=0;" parent="71" vertex="1">
                    <mxGeometry x="15" y="230" width="80" height="40" as="geometry"/>
                </mxCell>
                <mxCell id="87" style="edgeStyle=orthogonalEdgeStyle;html=1;entryX=0.5;entryY=0;entryDx=0;entryDy=0;strokeColor=#18141D;movable=1;resizable=1;rotatable=1;deletable=1;editable=1;connectable=1;locked=0;" parent="71" source="89" target="86" edge="1">
                    <mxGeometry relative="1" as="geometry"/>
                </mxCell>
                <mxCell id="88" value="veth" style="edgeLabel;html=1;align=center;verticalAlign=middle;resizable=1;points=[];movable=1;rotatable=1;deletable=1;editable=1;connectable=1;locked=0;container=0;" parent="87" vertex="1" connectable="0">
                    <mxGeometry x="-0.0932" y="2" relative="1" as="geometry">
                        <mxPoint as="offset"/>
                    </mxGeometry>
                </mxCell>
                <mxCell id="89" value="eth0" style="rounded=0;whiteSpace=wrap;html=1;dashed=1;fillColor=#008a00;strokeColor=#005700;fontColor=#ffffff;movable=1;resizable=1;rotatable=1;deletable=1;editable=1;connectable=1;locked=0;container=0;" parent="71" vertex="1">
                    <mxGeometry x="15" y="156.66000000000008" width="80" height="36.67" as="geometry"/>
                </mxCell>
                <mxCell id="90" value="pod" style="rounded=0;whiteSpace=wrap;html=1;fillColor=#fa6800;fontColor=#000000;strokeColor=#C73500;dashed=1;movable=1;resizable=1;rotatable=1;deletable=1;editable=1;connectable=1;locked=0;container=0;" parent="71" vertex="1">
                    <mxGeometry x="210" width="110" height="193.33333333333331" as="geometry"/>
                </mxCell>
                <mxCell id="91" style="edgeStyle=orthogonalEdgeStyle;html=1;entryX=0.5;entryY=0;entryDx=0;entryDy=0;strokeColor=#18141D;movable=1;resizable=1;rotatable=1;deletable=1;editable=1;connectable=1;locked=0;" parent="71" source="93" target="94" edge="1">
                    <mxGeometry relative="1" as="geometry"/>
                </mxCell>
                <mxCell id="92" value="veth" style="edgeLabel;html=1;align=center;verticalAlign=middle;resizable=1;points=[];movable=1;rotatable=1;deletable=1;editable=1;connectable=1;locked=0;container=0;" parent="91" vertex="1" connectable="0">
                    <mxGeometry x="-0.1553" y="-1" relative="1" as="geometry">
                        <mxPoint as="offset"/>
                    </mxGeometry>
                </mxCell>
                <mxCell id="93" value="eth0" style="rounded=0;whiteSpace=wrap;html=1;dashed=1;fillColor=#008a00;strokeColor=#005700;fontColor=#ffffff;movable=1;resizable=1;rotatable=1;deletable=1;editable=1;connectable=1;locked=0;container=0;" parent="71" vertex="1">
                    <mxGeometry x="225" y="156.66000000000008" width="80" height="36.67" as="geometry"/>
                </mxCell>
                <mxCell id="94" value="&lt;span style=&quot;color: rgb(255, 255, 255);&quot;&gt;vethxxx&lt;/span&gt;" style="rounded=0;whiteSpace=wrap;html=1;dashed=1;fillColor=#008a00;fontColor=#ffffff;strokeColor=#005700;movable=1;resizable=1;rotatable=1;deletable=1;editable=1;connectable=1;locked=0;container=0;" parent="71" vertex="1">
                    <mxGeometry x="225" y="230" width="80" height="40" as="geometry"/>
                </mxCell>
                <mxCell id="95" value="所有pod内路由" style="swimlane;fontStyle=0;childLayout=stackLayout;horizontal=1;startSize=30;horizontalStack=0;resizeParent=1;resizeParentMax=0;resizeLast=0;collapsible=1;marginBottom=0;whiteSpace=wrap;html=1;dashed=1;fontSize=13;fillColor=#f0a30a;fontColor=#000000;strokeColor=#BD7000;container=0;movable=1;resizable=1;rotatable=1;deletable=1;editable=1;locked=0;connectable=1;" parent="71" vertex="1">
                    <mxGeometry x="15" width="290" height="90" as="geometry"/>
                </mxCell>
                <mxCell id="96" value="" style="endArrow=classic;html=1;edgeStyle=orthogonalEdgeStyle;strokeColor=#CCCC00;strokeWidth=4;fillColor=#e3c800;movable=1;resizable=1;rotatable=1;deletable=1;editable=1;locked=0;connectable=1;" parent="71" edge="1">
                    <mxGeometry width="50" height="50" relative="1" as="geometry">
                        <mxPoint x="102.5" y="108" as="sourcePoint"/>
                        <mxPoint x="217.5" y="108" as="targetPoint"/>
                        <Array as="points">
                            <mxPoint x="103" y="312"/>
                            <mxPoint x="217" y="312"/>
                            <mxPoint x="217" y="123"/>
                        </Array>
                    </mxGeometry>
                </mxCell>
                <mxCell id="97" value="pod在同一node" style="edgeLabel;html=1;align=center;verticalAlign=middle;resizable=1;points=[];container=0;movable=1;rotatable=1;deletable=1;editable=1;locked=0;connectable=1;" parent="96" vertex="1" connectable="0">
                    <mxGeometry x="0.6457" relative="1" as="geometry">
                        <mxPoint x="-1" y="16" as="offset"/>
                    </mxGeometry>
                </mxCell>
                <mxCell id="98" value="" style="group" parent="1" vertex="1" connectable="0">
                    <mxGeometry x="1580" y="-2199" width="320" height="580" as="geometry"/>
                </mxCell>
                <mxCell id="99" value="" style="group;fillColor=#60a917;strokeColor=#2D7600;fontColor=#ffffff;movable=1;resizable=1;rotatable=1;deletable=1;editable=1;connectable=1;locked=0;container=0;" parent="98" vertex="1" connectable="0">
                    <mxGeometry width="320" height="580" as="geometry"/>
                </mxCell>
                <mxCell id="100" style="edgeStyle=orthogonalEdgeStyle;html=1;strokeColor=#18141D;movable=1;resizable=1;rotatable=1;deletable=1;editable=1;connectable=1;locked=0;" parent="98" source="121" edge="1">
                    <mxGeometry relative="1" as="geometry">
                        <mxPoint x="160" y="321.1034482758621" as="targetPoint"/>
                    </mxGeometry>
                </mxCell>
                <mxCell id="101" value="" style="rounded=0;whiteSpace=wrap;html=1;fillColor=#1ba1e2;fontColor=#ffffff;strokeColor=#006EAF;movable=1;resizable=1;rotatable=1;deletable=1;editable=1;connectable=1;locked=0;container=0;" parent="98" vertex="1">
                    <mxGeometry width="320" height="580" as="geometry"/>
                </mxCell>
                <mxCell id="102" style="edgeStyle=none;html=1;movable=1;resizable=1;rotatable=1;deletable=1;editable=1;connectable=1;locked=0;" parent="98" source="106" target="101" edge="1">
                    <mxGeometry relative="1" as="geometry"/>
                </mxCell>
                <mxCell id="103" style="edgeStyle=none;html=1;movable=1;resizable=1;rotatable=1;deletable=1;editable=1;connectable=1;locked=0;" parent="98" source="106" target="101" edge="1">
                    <mxGeometry relative="1" as="geometry"/>
                </mxCell>
                <mxCell id="104" style="edgeStyle=none;html=1;movable=1;resizable=1;rotatable=1;deletable=1;editable=1;connectable=1;locked=0;" parent="98" source="106" target="101" edge="1">
                    <mxGeometry relative="1" as="geometry"/>
                </mxCell>
                <mxCell id="105" style="edgeStyle=none;html=1;movable=1;resizable=1;rotatable=1;deletable=1;editable=1;connectable=1;locked=0;" parent="98" source="106" target="101" edge="1">
                    <mxGeometry relative="1" as="geometry"/>
                </mxCell>
                <mxCell id="106" value="pod" style="rounded=0;whiteSpace=wrap;html=1;fillColor=#fa6800;fontColor=#000000;strokeColor=#C73500;dashed=1;movable=1;resizable=1;rotatable=1;deletable=1;editable=1;connectable=1;locked=0;container=0;" parent="98" vertex="1">
                    <mxGeometry width="110" height="193.33333333333331" as="geometry"/>
                </mxCell>
                <mxCell id="107" value="路由表" style="rounded=0;whiteSpace=wrap;html=1;fillColor=#e3c800;fontColor=#000000;strokeColor=#B09500;movable=1;resizable=1;rotatable=1;deletable=1;editable=1;connectable=1;locked=0;container=0;" parent="98" vertex="1">
                    <mxGeometry x="100" y="320" width="120" height="60.416666666666664" as="geometry"/>
                </mxCell>
                <mxCell id="109" style="edgeStyle=orthogonalEdgeStyle;html=1;movable=1;resizable=1;rotatable=1;deletable=1;editable=1;connectable=1;locked=0;entryX=0.5;entryY=0;entryDx=0;entryDy=0;" parent="98" source="107" target="110" edge="1">
                    <mxGeometry relative="1" as="geometry">
                        <mxPoint x="160" y="429.99666666666667" as="targetPoint"/>
                    </mxGeometry>
                </mxCell>
                <mxCell id="110" value="eth0物理网卡" style="rounded=0;whiteSpace=wrap;html=1;fillColor=#e3c800;fontColor=#000000;strokeColor=#B09500;movable=1;resizable=1;rotatable=1;deletable=1;editable=1;connectable=1;locked=0;container=0;" parent="98" vertex="1">
                    <mxGeometry x="100" y="519.5833333333333" width="120" height="60.416666666666664" as="geometry"/>
                </mxCell>
                <mxCell id="112" style="edgeStyle=orthogonalEdgeStyle;html=1;entryX=0.5;entryY=0;entryDx=0;entryDy=0;strokeColor=#18141D;movable=1;resizable=1;rotatable=1;deletable=1;editable=1;connectable=1;locked=0;" parent="98" source="113" target="107" edge="1">
                    <mxGeometry relative="1" as="geometry"/>
                </mxCell>
                <mxCell id="113" value="vethxxx" style="rounded=0;whiteSpace=wrap;html=1;dashed=1;fillColor=#008a00;fontColor=#ffffff;strokeColor=#005700;movable=1;resizable=1;rotatable=1;deletable=1;editable=1;connectable=1;locked=0;container=0;" parent="98" vertex="1">
                    <mxGeometry x="15" y="230" width="80" height="40" as="geometry"/>
                </mxCell>
                <mxCell id="114" style="edgeStyle=orthogonalEdgeStyle;html=1;entryX=0.5;entryY=0;entryDx=0;entryDy=0;strokeColor=#18141D;movable=1;resizable=1;rotatable=1;deletable=1;editable=1;connectable=1;locked=0;" parent="98" source="116" target="113" edge="1">
                    <mxGeometry relative="1" as="geometry"/>
                </mxCell>
                <mxCell id="115" value="veth" style="edgeLabel;html=1;align=center;verticalAlign=middle;resizable=1;points=[];movable=1;rotatable=1;deletable=1;editable=1;connectable=1;locked=0;container=0;" parent="114" vertex="1" connectable="0">
                    <mxGeometry x="-0.0932" y="2" relative="1" as="geometry">
                        <mxPoint as="offset"/>
                    </mxGeometry>
                </mxCell>
                <mxCell id="116" value="eth0" style="rounded=0;whiteSpace=wrap;html=1;dashed=1;fillColor=#008a00;strokeColor=#005700;fontColor=#ffffff;movable=1;resizable=1;rotatable=1;deletable=1;editable=1;connectable=1;locked=0;container=0;" parent="98" vertex="1">
                    <mxGeometry x="15" y="156.66000000000008" width="80" height="36.67" as="geometry"/>
                </mxCell>
                <mxCell id="117" value="pod" style="rounded=0;whiteSpace=wrap;html=1;fillColor=#fa6800;fontColor=#000000;strokeColor=#C73500;dashed=1;movable=1;resizable=1;rotatable=1;deletable=1;editable=1;connectable=1;locked=0;container=0;" parent="98" vertex="1">
                    <mxGeometry x="210" width="110" height="193.33333333333331" as="geometry"/>
                </mxCell>
                <mxCell id="118" style="edgeStyle=orthogonalEdgeStyle;html=1;entryX=0.5;entryY=0;entryDx=0;entryDy=0;strokeColor=#18141D;movable=1;resizable=1;rotatable=1;deletable=1;editable=1;connectable=1;locked=0;" parent="98" source="120" target="121" edge="1">
                    <mxGeometry relative="1" as="geometry"/>
                </mxCell>
                <mxCell id="119" value="veth" style="edgeLabel;html=1;align=center;verticalAlign=middle;resizable=1;points=[];movable=1;rotatable=1;deletable=1;editable=1;connectable=1;locked=0;container=0;" parent="118" vertex="1" connectable="0">
                    <mxGeometry x="-0.1553" y="-1" relative="1" as="geometry">
                        <mxPoint as="offset"/>
                    </mxGeometry>
                </mxCell>
                <mxCell id="120" value="eth0" style="rounded=0;whiteSpace=wrap;html=1;dashed=1;fillColor=#008a00;strokeColor=#005700;fontColor=#ffffff;movable=1;resizable=1;rotatable=1;deletable=1;editable=1;connectable=1;locked=0;container=0;" parent="98" vertex="1">
                    <mxGeometry x="225" y="156.66000000000008" width="80" height="36.67" as="geometry"/>
                </mxCell>
                <mxCell id="121" value="&lt;span style=&quot;color: rgb(255, 255, 255);&quot;&gt;vethxxx&lt;/span&gt;" style="rounded=0;whiteSpace=wrap;html=1;dashed=1;fillColor=#008a00;fontColor=#ffffff;strokeColor=#005700;movable=1;resizable=1;rotatable=1;deletable=1;editable=1;connectable=1;locked=0;container=0;" parent="98" vertex="1">
                    <mxGeometry x="225" y="230" width="80" height="40" as="geometry"/>
                </mxCell>
                <mxCell id="122" value="所有pod内路由" style="swimlane;fontStyle=0;childLayout=stackLayout;horizontal=1;startSize=30;horizontalStack=0;resizeParent=1;resizeParentMax=0;resizeLast=0;collapsible=1;marginBottom=0;whiteSpace=wrap;html=1;dashed=1;fontSize=13;fillColor=#f0a30a;fontColor=#000000;strokeColor=#BD7000;container=0;movable=1;resizable=1;rotatable=1;deletable=1;editable=1;locked=0;connectable=1;" parent="98" vertex="1">
                    <mxGeometry x="15" width="290" height="90" as="geometry"/>
                </mxCell>
                <mxCell id="123" value="" style="endArrow=classic;html=1;edgeStyle=orthogonalEdgeStyle;strokeColor=#CCCC00;strokeWidth=4;fillColor=#e3c800;movable=1;resizable=1;rotatable=1;deletable=1;editable=1;locked=0;connectable=1;" parent="98" edge="1">
                    <mxGeometry width="50" height="50" relative="1" as="geometry">
                        <mxPoint x="102.5" y="108" as="sourcePoint"/>
                        <mxPoint x="217.5" y="108" as="targetPoint"/>
                        <Array as="points">
                            <mxPoint x="103" y="312"/>
                            <mxPoint x="217" y="312"/>
                            <mxPoint x="217" y="123"/>
                        </Array>
                    </mxGeometry>
                </mxCell>
                <mxCell id="124" value="pod在同一node" style="edgeLabel;html=1;align=center;verticalAlign=middle;resizable=1;points=[];container=0;movable=1;rotatable=1;deletable=1;editable=1;locked=0;connectable=1;" parent="123" vertex="1" connectable="0">
                    <mxGeometry x="0.6457" relative="1" as="geometry">
                        <mxPoint x="-1" y="16" as="offset"/>
                    </mxGeometry>
                </mxCell>
                <mxCell id="125" style="edgeStyle=none;html=1;entryX=0.5;entryY=1;entryDx=0;entryDy=0;strokeWidth=3;startArrow=classic;startFill=1;" parent="1" edge="1">
                    <mxGeometry relative="1" as="geometry">
                        <mxPoint x="1740" y="-1618" as="targetPoint"/>
                        <mxPoint x="1243.7477384337037" y="-1619" as="sourcePoint"/>
                        <Array as="points">
                            <mxPoint x="1244" y="-1488"/>
                            <mxPoint x="1740" y="-1488"/>
                        </Array>
                    </mxGeometry>
                </mxCell>
                <mxCell id="126" value="原始包" style="edgeLabel;html=1;align=center;verticalAlign=middle;resizable=0;points=[];" parent="125" vertex="1" connectable="0">
                    <mxGeometry x="-0.0611" y="-2" relative="1" as="geometry">
                        <mxPoint as="offset"/>
                    </mxGeometry>
                </mxCell>
                <mxCell id="127" value="&lt;span style=&quot;font-size: 19px;&quot;&gt;&lt;font style=&quot;color: rgb(255, 51, 51);&quot;&gt;flannel-vxlan&lt;/font&gt;&lt;/span&gt;" style="text;html=1;align=center;verticalAlign=middle;resizable=0;points=[];autosize=1;strokeColor=none;fillColor=none;" parent="1" vertex="1">
                    <mxGeometry x="425" y="-2247" width="130" height="40" as="geometry"/>
                </mxCell>
                <mxCell id="128" value="&lt;span style=&quot;font-size: 19px;&quot;&gt;&lt;font style=&quot;color: rgb(255, 51, 51);&quot;&gt;flannel-host-gw&lt;/font&gt;&lt;/span&gt;" style="text;html=1;align=center;verticalAlign=middle;resizable=0;points=[];autosize=1;strokeColor=none;fillColor=none;" parent="1" vertex="1">
                    <mxGeometry x="1420" y="-2240" width="150" height="40" as="geometry"/>
                </mxCell>
                <mxCell id="209" value="" style="group" vertex="1" connectable="0" parent="1">
                    <mxGeometry x="2540" y="-2201" width="320" height="580" as="geometry"/>
                </mxCell>
                <mxCell id="210" value="" style="group;fillColor=#60a917;strokeColor=#2D7600;fontColor=#ffffff;movable=1;resizable=1;rotatable=1;deletable=1;editable=1;connectable=1;locked=0;container=0;" vertex="1" connectable="0" parent="209">
                    <mxGeometry width="320" height="580" as="geometry"/>
                </mxCell>
                <mxCell id="211" style="edgeStyle=orthogonalEdgeStyle;html=1;strokeColor=#18141D;movable=1;resizable=1;rotatable=1;deletable=1;editable=1;connectable=1;locked=0;" edge="1" parent="209" source="232">
                    <mxGeometry relative="1" as="geometry">
                        <mxPoint x="160" y="321.1034482758621" as="targetPoint"/>
                    </mxGeometry>
                </mxCell>
                <mxCell id="212" value="" style="rounded=0;whiteSpace=wrap;html=1;fillColor=#1ba1e2;fontColor=#ffffff;strokeColor=#006EAF;movable=1;resizable=1;rotatable=1;deletable=1;editable=1;connectable=1;locked=0;container=0;" vertex="1" parent="209">
                    <mxGeometry width="320" height="580" as="geometry"/>
                </mxCell>
                <mxCell id="213" style="edgeStyle=none;html=1;movable=1;resizable=1;rotatable=1;deletable=1;editable=1;connectable=1;locked=0;" edge="1" parent="209" source="217" target="212">
                    <mxGeometry relative="1" as="geometry"/>
                </mxCell>
                <mxCell id="214" style="edgeStyle=none;html=1;movable=1;resizable=1;rotatable=1;deletable=1;editable=1;connectable=1;locked=0;" edge="1" parent="209" source="217" target="212">
                    <mxGeometry relative="1" as="geometry"/>
                </mxCell>
                <mxCell id="215" style="edgeStyle=none;html=1;movable=1;resizable=1;rotatable=1;deletable=1;editable=1;connectable=1;locked=0;" edge="1" parent="209" source="217" target="212">
                    <mxGeometry relative="1" as="geometry"/>
                </mxCell>
                <mxCell id="216" style="edgeStyle=none;html=1;movable=1;resizable=1;rotatable=1;deletable=1;editable=1;connectable=1;locked=0;" edge="1" parent="209" source="217" target="212">
                    <mxGeometry relative="1" as="geometry"/>
                </mxCell>
                <mxCell id="217" value="pod" style="rounded=0;whiteSpace=wrap;html=1;fillColor=#fa6800;fontColor=#000000;strokeColor=#C73500;dashed=1;movable=1;resizable=1;rotatable=1;deletable=1;editable=1;connectable=1;locked=0;container=0;" vertex="1" parent="209">
                    <mxGeometry width="110" height="193.33333333333331" as="geometry"/>
                </mxCell>
                <mxCell id="218" value="路由表" style="rounded=0;whiteSpace=wrap;html=1;fillColor=#e3c800;fontColor=#000000;strokeColor=#B09500;movable=1;resizable=1;rotatable=1;deletable=1;editable=1;connectable=1;locked=0;container=0;" vertex="1" parent="209">
                    <mxGeometry x="100" y="320" width="120" height="60.416666666666664" as="geometry"/>
                </mxCell>
                <mxCell id="219" value="flanneld pod" style="rounded=0;whiteSpace=wrap;html=1;fillColor=#e3c800;fontColor=#000000;strokeColor=#B09500;movable=1;resizable=1;rotatable=1;deletable=1;editable=1;connectable=1;locked=0;container=0;" vertex="1" parent="209">
                    <mxGeometry x="100" y="473" width="120" height="30.41" as="geometry"/>
                </mxCell>
                <mxCell id="220" style="edgeStyle=orthogonalEdgeStyle;html=1;movable=1;resizable=1;rotatable=1;deletable=1;editable=1;connectable=1;locked=0;" edge="1" parent="209" source="218" target="219">
                    <mxGeometry relative="1" as="geometry"/>
                </mxCell>
                <mxCell id="221" value="eth0物理网卡" style="rounded=0;whiteSpace=wrap;html=1;fillColor=#e3c800;fontColor=#000000;strokeColor=#B09500;movable=1;resizable=1;rotatable=1;deletable=1;editable=1;connectable=1;locked=0;container=0;" vertex="1" parent="209">
                    <mxGeometry x="100" y="519.5833333333333" width="120" height="60.416666666666664" as="geometry"/>
                </mxCell>
                <mxCell id="222" style="edgeStyle=orthogonalEdgeStyle;html=1;movable=1;resizable=1;rotatable=1;deletable=1;editable=1;connectable=1;locked=0;" edge="1" parent="209" source="219" target="221">
                    <mxGeometry relative="1" as="geometry"/>
                </mxCell>
                <mxCell id="223" style="edgeStyle=orthogonalEdgeStyle;html=1;entryX=0.5;entryY=0;entryDx=0;entryDy=0;strokeColor=#18141D;movable=1;resizable=1;rotatable=1;deletable=1;editable=1;connectable=1;locked=0;" edge="1" parent="209" source="224" target="218">
                    <mxGeometry relative="1" as="geometry"/>
                </mxCell>
                <mxCell id="224" value="vethxxx" style="rounded=0;whiteSpace=wrap;html=1;dashed=1;fillColor=#008a00;fontColor=#ffffff;strokeColor=#005700;movable=1;resizable=1;rotatable=1;deletable=1;editable=1;connectable=1;locked=0;container=0;" vertex="1" parent="209">
                    <mxGeometry x="15" y="230" width="80" height="40" as="geometry"/>
                </mxCell>
                <mxCell id="225" style="edgeStyle=orthogonalEdgeStyle;html=1;entryX=0.5;entryY=0;entryDx=0;entryDy=0;strokeColor=#18141D;movable=1;resizable=1;rotatable=1;deletable=1;editable=1;connectable=1;locked=0;" edge="1" parent="209" source="227" target="224">
                    <mxGeometry relative="1" as="geometry"/>
                </mxCell>
                <mxCell id="226" value="veth" style="edgeLabel;html=1;align=center;verticalAlign=middle;resizable=1;points=[];movable=1;rotatable=1;deletable=1;editable=1;connectable=1;locked=0;container=0;" vertex="1" connectable="0" parent="225">
                    <mxGeometry x="-0.0932" y="2" relative="1" as="geometry">
                        <mxPoint as="offset"/>
                    </mxGeometry>
                </mxCell>
                <mxCell id="227" value="eth0" style="rounded=0;whiteSpace=wrap;html=1;dashed=1;fillColor=#008a00;strokeColor=#005700;fontColor=#ffffff;movable=1;resizable=1;rotatable=1;deletable=1;editable=1;connectable=1;locked=0;container=0;" vertex="1" parent="209">
                    <mxGeometry x="15" y="156.66000000000008" width="80" height="36.67" as="geometry"/>
                </mxCell>
                <mxCell id="228" value="pod" style="rounded=0;whiteSpace=wrap;html=1;fillColor=#fa6800;fontColor=#000000;strokeColor=#C73500;dashed=1;movable=1;resizable=1;rotatable=1;deletable=1;editable=1;connectable=1;locked=0;container=0;" vertex="1" parent="209">
                    <mxGeometry x="210" width="110" height="193.33333333333331" as="geometry"/>
                </mxCell>
                <mxCell id="229" style="edgeStyle=orthogonalEdgeStyle;html=1;entryX=0.5;entryY=0;entryDx=0;entryDy=0;strokeColor=#18141D;movable=1;resizable=1;rotatable=1;deletable=1;editable=1;connectable=1;locked=0;" edge="1" parent="209" source="231" target="232">
                    <mxGeometry relative="1" as="geometry"/>
                </mxCell>
                <mxCell id="230" value="veth" style="edgeLabel;html=1;align=center;verticalAlign=middle;resizable=1;points=[];movable=1;rotatable=1;deletable=1;editable=1;connectable=1;locked=0;container=0;" vertex="1" connectable="0" parent="229">
                    <mxGeometry x="-0.1553" y="-1" relative="1" as="geometry">
                        <mxPoint as="offset"/>
                    </mxGeometry>
                </mxCell>
                <mxCell id="231" value="eth0" style="rounded=0;whiteSpace=wrap;html=1;dashed=1;fillColor=#008a00;strokeColor=#005700;fontColor=#ffffff;movable=1;resizable=1;rotatable=1;deletable=1;editable=1;connectable=1;locked=0;container=0;" vertex="1" parent="209">
                    <mxGeometry x="225" y="156.66000000000008" width="80" height="36.67" as="geometry"/>
                </mxCell>
                <mxCell id="232" value="&lt;span style=&quot;color: rgb(255, 255, 255);&quot;&gt;vethxxx&lt;/span&gt;" style="rounded=0;whiteSpace=wrap;html=1;dashed=1;fillColor=#008a00;fontColor=#ffffff;strokeColor=#005700;movable=1;resizable=1;rotatable=1;deletable=1;editable=1;connectable=1;locked=0;container=0;" vertex="1" parent="209">
                    <mxGeometry x="225" y="230" width="80" height="40" as="geometry"/>
                </mxCell>
                <mxCell id="233" value="所有pod内路由" style="swimlane;fontStyle=0;childLayout=stackLayout;horizontal=1;startSize=30;horizontalStack=0;resizeParent=1;resizeParentMax=0;resizeLast=0;collapsible=1;marginBottom=0;whiteSpace=wrap;html=1;dashed=1;fontSize=13;fillColor=#f0a30a;fontColor=#000000;strokeColor=#BD7000;container=0;movable=1;resizable=1;rotatable=1;deletable=1;editable=1;locked=0;connectable=1;" vertex="1" parent="209">
                    <mxGeometry x="15" width="290" height="90" as="geometry"/>
                </mxCell>
                <mxCell id="234" value="" style="endArrow=classic;html=1;edgeStyle=orthogonalEdgeStyle;strokeColor=#CCCC00;strokeWidth=4;fillColor=#e3c800;movable=1;resizable=1;rotatable=1;deletable=1;editable=1;locked=0;connectable=1;" edge="1" parent="209">
                    <mxGeometry width="50" height="50" relative="1" as="geometry">
                        <mxPoint x="102.5" y="108" as="sourcePoint"/>
                        <mxPoint x="217.5" y="108" as="targetPoint"/>
                        <Array as="points">
                            <mxPoint x="103" y="312"/>
                            <mxPoint x="217" y="312"/>
                            <mxPoint x="217" y="123"/>
                        </Array>
                    </mxGeometry>
                </mxCell>
                <mxCell id="235" value="pod在同一node" style="edgeLabel;html=1;align=center;verticalAlign=middle;resizable=1;points=[];container=0;movable=1;rotatable=1;deletable=1;editable=1;locked=0;connectable=1;" vertex="1" connectable="0" parent="234">
                    <mxGeometry x="0.6457" relative="1" as="geometry">
                        <mxPoint x="-1" y="16" as="offset"/>
                    </mxGeometry>
                </mxCell>
                <mxCell id="239" value="flannel0 tun网卡" style="rounded=0;whiteSpace=wrap;html=1;fillColor=#e3c800;fontColor=#000000;strokeColor=#B09500;movable=1;resizable=1;rotatable=1;deletable=1;editable=1;connectable=1;locked=0;container=0;" vertex="1" parent="209">
                    <mxGeometry x="100" y="403" width="120" height="40.41" as="geometry"/>
                </mxCell>
                <mxCell id="236" style="edgeStyle=none;html=1;entryX=0.5;entryY=1;entryDx=0;entryDy=0;strokeWidth=3;startArrow=classic;startFill=1;" edge="1" parent="1">
                    <mxGeometry relative="1" as="geometry">
                        <mxPoint x="2700" y="-1612" as="targetPoint"/>
                        <mxPoint x="2203.7477384337035" y="-1613" as="sourcePoint"/>
                        <Array as="points">
                            <mxPoint x="2204" y="-1482"/>
                            <mxPoint x="2700" y="-1482"/>
                        </Array>
                    </mxGeometry>
                </mxCell>
                <mxCell id="237" value="vxlan" style="edgeLabel;html=1;align=center;verticalAlign=middle;resizable=0;points=[];" vertex="1" connectable="0" parent="236">
                    <mxGeometry x="-0.0611" y="-2" relative="1" as="geometry">
                        <mxPoint as="offset"/>
                    </mxGeometry>
                </mxCell>
                <mxCell id="238" value="&lt;span style=&quot;font-size: 19px;&quot;&gt;&lt;font style=&quot;color: rgb(255, 51, 51);&quot;&gt;flannel-udp&lt;/font&gt;&lt;/span&gt;" style="text;html=1;align=center;verticalAlign=middle;resizable=0;points=[];autosize=1;strokeColor=none;fillColor=none;" vertex="1" parent="1">
                    <mxGeometry x="2370" y="-2240" width="120" height="40" as="geometry"/>
                </mxCell>
                <mxCell id="240" value="" style="group" vertex="1" connectable="0" parent="1">
                    <mxGeometry x="2040" y="-2199" width="320" height="580" as="geometry"/>
                </mxCell>
                <mxCell id="241" value="" style="group;fillColor=#60a917;strokeColor=#2D7600;fontColor=#ffffff;movable=1;resizable=1;rotatable=1;deletable=1;editable=1;connectable=1;locked=0;container=0;" vertex="1" connectable="0" parent="240">
                    <mxGeometry width="320" height="580" as="geometry"/>
                </mxCell>
                <mxCell id="242" style="edgeStyle=orthogonalEdgeStyle;html=1;strokeColor=#18141D;movable=1;resizable=1;rotatable=1;deletable=1;editable=1;connectable=1;locked=0;" edge="1" parent="240" source="263">
                    <mxGeometry relative="1" as="geometry">
                        <mxPoint x="160" y="321.1034482758621" as="targetPoint"/>
                    </mxGeometry>
                </mxCell>
                <mxCell id="243" value="" style="rounded=0;whiteSpace=wrap;html=1;fillColor=#1ba1e2;fontColor=#ffffff;strokeColor=#006EAF;movable=1;resizable=1;rotatable=1;deletable=1;editable=1;connectable=1;locked=0;container=0;" vertex="1" parent="240">
                    <mxGeometry width="320" height="580" as="geometry"/>
                </mxCell>
                <mxCell id="244" style="edgeStyle=none;html=1;movable=1;resizable=1;rotatable=1;deletable=1;editable=1;connectable=1;locked=0;" edge="1" parent="240" source="248" target="243">
                    <mxGeometry relative="1" as="geometry"/>
                </mxCell>
                <mxCell id="245" style="edgeStyle=none;html=1;movable=1;resizable=1;rotatable=1;deletable=1;editable=1;connectable=1;locked=0;" edge="1" parent="240" source="248" target="243">
                    <mxGeometry relative="1" as="geometry"/>
                </mxCell>
                <mxCell id="246" style="edgeStyle=none;html=1;movable=1;resizable=1;rotatable=1;deletable=1;editable=1;connectable=1;locked=0;" edge="1" parent="240" source="248" target="243">
                    <mxGeometry relative="1" as="geometry"/>
                </mxCell>
                <mxCell id="247" style="edgeStyle=none;html=1;movable=1;resizable=1;rotatable=1;deletable=1;editable=1;connectable=1;locked=0;" edge="1" parent="240" source="248" target="243">
                    <mxGeometry relative="1" as="geometry"/>
                </mxCell>
                <mxCell id="248" value="pod" style="rounded=0;whiteSpace=wrap;html=1;fillColor=#fa6800;fontColor=#000000;strokeColor=#C73500;dashed=1;movable=1;resizable=1;rotatable=1;deletable=1;editable=1;connectable=1;locked=0;container=0;" vertex="1" parent="240">
                    <mxGeometry width="110" height="193.33333333333331" as="geometry"/>
                </mxCell>
                <mxCell id="249" value="路由表" style="rounded=0;whiteSpace=wrap;html=1;fillColor=#e3c800;fontColor=#000000;strokeColor=#B09500;movable=1;resizable=1;rotatable=1;deletable=1;editable=1;connectable=1;locked=0;container=0;" vertex="1" parent="240">
                    <mxGeometry x="100" y="320" width="120" height="60.416666666666664" as="geometry"/>
                </mxCell>
                <mxCell id="250" value="flanneld pod" style="rounded=0;whiteSpace=wrap;html=1;fillColor=#e3c800;fontColor=#000000;strokeColor=#B09500;movable=1;resizable=1;rotatable=1;deletable=1;editable=1;connectable=1;locked=0;container=0;" vertex="1" parent="240">
                    <mxGeometry x="100" y="473" width="120" height="30.41" as="geometry"/>
                </mxCell>
                <mxCell id="251" style="edgeStyle=orthogonalEdgeStyle;html=1;movable=1;resizable=1;rotatable=1;deletable=1;editable=1;connectable=1;locked=0;" edge="1" parent="240" source="249" target="250">
                    <mxGeometry relative="1" as="geometry"/>
                </mxCell>
                <mxCell id="252" value="eth0物理网卡" style="rounded=0;whiteSpace=wrap;html=1;fillColor=#e3c800;fontColor=#000000;strokeColor=#B09500;movable=1;resizable=1;rotatable=1;deletable=1;editable=1;connectable=1;locked=0;container=0;" vertex="1" parent="240">
                    <mxGeometry x="100" y="519.5833333333333" width="120" height="60.416666666666664" as="geometry"/>
                </mxCell>
                <mxCell id="253" style="edgeStyle=orthogonalEdgeStyle;html=1;movable=1;resizable=1;rotatable=1;deletable=1;editable=1;connectable=1;locked=0;" edge="1" parent="240" source="250" target="252">
                    <mxGeometry relative="1" as="geometry"/>
                </mxCell>
                <mxCell id="254" style="edgeStyle=orthogonalEdgeStyle;html=1;entryX=0.5;entryY=0;entryDx=0;entryDy=0;strokeColor=#18141D;movable=1;resizable=1;rotatable=1;deletable=1;editable=1;connectable=1;locked=0;" edge="1" parent="240" source="255" target="249">
                    <mxGeometry relative="1" as="geometry"/>
                </mxCell>
                <mxCell id="255" value="vethxxx" style="rounded=0;whiteSpace=wrap;html=1;dashed=1;fillColor=#008a00;fontColor=#ffffff;strokeColor=#005700;movable=1;resizable=1;rotatable=1;deletable=1;editable=1;connectable=1;locked=0;container=0;" vertex="1" parent="240">
                    <mxGeometry x="15" y="230" width="80" height="40" as="geometry"/>
                </mxCell>
                <mxCell id="256" style="edgeStyle=orthogonalEdgeStyle;html=1;entryX=0.5;entryY=0;entryDx=0;entryDy=0;strokeColor=#18141D;movable=1;resizable=1;rotatable=1;deletable=1;editable=1;connectable=1;locked=0;" edge="1" parent="240" source="258" target="255">
                    <mxGeometry relative="1" as="geometry"/>
                </mxCell>
                <mxCell id="257" value="veth" style="edgeLabel;html=1;align=center;verticalAlign=middle;resizable=1;points=[];movable=1;rotatable=1;deletable=1;editable=1;connectable=1;locked=0;container=0;" vertex="1" connectable="0" parent="256">
                    <mxGeometry x="-0.0932" y="2" relative="1" as="geometry">
                        <mxPoint as="offset"/>
                    </mxGeometry>
                </mxCell>
                <mxCell id="258" value="eth0" style="rounded=0;whiteSpace=wrap;html=1;dashed=1;fillColor=#008a00;strokeColor=#005700;fontColor=#ffffff;movable=1;resizable=1;rotatable=1;deletable=1;editable=1;connectable=1;locked=0;container=0;" vertex="1" parent="240">
                    <mxGeometry x="15" y="156.66000000000008" width="80" height="36.67" as="geometry"/>
                </mxCell>
                <mxCell id="259" value="pod" style="rounded=0;whiteSpace=wrap;html=1;fillColor=#fa6800;fontColor=#000000;strokeColor=#C73500;dashed=1;movable=1;resizable=1;rotatable=1;deletable=1;editable=1;connectable=1;locked=0;container=0;" vertex="1" parent="240">
                    <mxGeometry x="210" width="110" height="193.33333333333331" as="geometry"/>
                </mxCell>
                <mxCell id="260" style="edgeStyle=orthogonalEdgeStyle;html=1;entryX=0.5;entryY=0;entryDx=0;entryDy=0;strokeColor=#18141D;movable=1;resizable=1;rotatable=1;deletable=1;editable=1;connectable=1;locked=0;" edge="1" parent="240" source="262" target="263">
                    <mxGeometry relative="1" as="geometry"/>
                </mxCell>
                <mxCell id="261" value="veth" style="edgeLabel;html=1;align=center;verticalAlign=middle;resizable=1;points=[];movable=1;rotatable=1;deletable=1;editable=1;connectable=1;locked=0;container=0;" vertex="1" connectable="0" parent="260">
                    <mxGeometry x="-0.1553" y="-1" relative="1" as="geometry">
                        <mxPoint as="offset"/>
                    </mxGeometry>
                </mxCell>
                <mxCell id="262" value="eth0" style="rounded=0;whiteSpace=wrap;html=1;dashed=1;fillColor=#008a00;strokeColor=#005700;fontColor=#ffffff;movable=1;resizable=1;rotatable=1;deletable=1;editable=1;connectable=1;locked=0;container=0;" vertex="1" parent="240">
                    <mxGeometry x="225" y="156.66000000000008" width="80" height="36.67" as="geometry"/>
                </mxCell>
                <mxCell id="263" value="&lt;span style=&quot;color: rgb(255, 255, 255);&quot;&gt;vethxxx&lt;/span&gt;" style="rounded=0;whiteSpace=wrap;html=1;dashed=1;fillColor=#008a00;fontColor=#ffffff;strokeColor=#005700;movable=1;resizable=1;rotatable=1;deletable=1;editable=1;connectable=1;locked=0;container=0;" vertex="1" parent="240">
                    <mxGeometry x="225" y="230" width="80" height="40" as="geometry"/>
                </mxCell>
                <mxCell id="264" value="所有pod内路由" style="swimlane;fontStyle=0;childLayout=stackLayout;horizontal=1;startSize=30;horizontalStack=0;resizeParent=1;resizeParentMax=0;resizeLast=0;collapsible=1;marginBottom=0;whiteSpace=wrap;html=1;dashed=1;fontSize=13;fillColor=#f0a30a;fontColor=#000000;strokeColor=#BD7000;container=0;movable=1;resizable=1;rotatable=1;deletable=1;editable=1;locked=0;connectable=1;" vertex="1" parent="240">
                    <mxGeometry x="15" width="290" height="90" as="geometry"/>
                </mxCell>
                <mxCell id="265" value="" style="endArrow=classic;html=1;edgeStyle=orthogonalEdgeStyle;strokeColor=#CCCC00;strokeWidth=4;fillColor=#e3c800;movable=1;resizable=1;rotatable=1;deletable=1;editable=1;locked=0;connectable=1;" edge="1" parent="240">
                    <mxGeometry width="50" height="50" relative="1" as="geometry">
                        <mxPoint x="102.5" y="108" as="sourcePoint"/>
                        <mxPoint x="217.5" y="108" as="targetPoint"/>
                        <Array as="points">
                            <mxPoint x="103" y="312"/>
                            <mxPoint x="217" y="312"/>
                            <mxPoint x="217" y="123"/>
                        </Array>
                    </mxGeometry>
                </mxCell>
                <mxCell id="266" value="pod在同一node" style="edgeLabel;html=1;align=center;verticalAlign=middle;resizable=1;points=[];container=0;movable=1;rotatable=1;deletable=1;editable=1;locked=0;connectable=1;" vertex="1" connectable="0" parent="265">
                    <mxGeometry x="0.6457" relative="1" as="geometry">
                        <mxPoint x="-1" y="16" as="offset"/>
                    </mxGeometry>
                </mxCell>
                <mxCell id="267" value="flannel0 tun网卡" style="rounded=0;whiteSpace=wrap;html=1;fillColor=#e3c800;fontColor=#000000;strokeColor=#B09500;movable=1;resizable=1;rotatable=1;deletable=1;editable=1;connectable=1;locked=0;container=0;" vertex="1" parent="240">
                    <mxGeometry x="100" y="403" width="120" height="40.41" as="geometry"/>
                </mxCell>
            </root>
        </mxGraphModel>
    </diagram>
</mxfile>